<?xml version="1.0" encoding="UTF-8" standalone="no"?><svg xmlns="http://www.w3.org/2000/svg" xmlns:xlink="http://www.w3.org/1999/xlink" contentScriptType="application/ecmascript" contentStyleType="text/css" height="1019px" preserveAspectRatio="none" style="width:852px;height:1019px;" version="1.1" viewBox="0 0 852 1019" width="852px" zoomAndPan="magnify"><defs><filter height="300%" id="f1y0cvy759y8t4" width="300%" x="-1" y="-1"><feGaussianBlur result="blurOut" stdDeviation="2.0"/><feColorMatrix in="blurOut" result="blurOut2" type="matrix" values="0 0 0 0 0 0 0 0 0 0 0 0 0 0 0 0 0 0 .4 0"/><feOffset dx="4.0" dy="4.0" in="blurOut2" result="blurOut3"/><feBlend in="SourceGraphic" in2="blurOut3" mode="normal"/></filter></defs><g><rect fill="#FFFFFF" filter="url(#f1y0cvy759y8t4)" height="320.5938" style="stroke: #383838; stroke-width: 1.0;" width="10" x="499" y="146.5625"/><rect fill="#FFFFFF" filter="url(#f1y0cvy759y8t4)" height="29.1328" style="stroke: #383838; stroke-width: 1.0;" width="10" x="499" y="885.4922"/><rect fill="#FFFFFF" filter="url(#f1y0cvy759y8t4)" height="87.3984" style="stroke: #383838; stroke-width: 1.0;" width="10" x="795" y="320.3594"/><rect fill="#FFFFFF" filter="url(#f1y0cvy759y8t4)" height="87.3984" style="stroke: #383838; stroke-width: 1.0;" width="10" x="795" y="639.625"/><line style="stroke: #383838; stroke-width: 1.0;" x1="44" x2="44" y1="86.2969" y2="475.1563"/><line style="stroke: #383838; stroke-width: 1.0; stroke-dasharray: 1.0,4.0;" x1="44" x2="44" y1="475.1563" y2="515.9609"/><line style="stroke: #383838; stroke-width: 1.0;" x1="44" x2="44" y1="515.9609" y2="794.4219"/><line style="stroke: #383838; stroke-width: 1.0; stroke-dasharray: 1.0,4.0;" x1="44" x2="44" y1="794.4219" y2="835.2266"/><line style="stroke: #383838; stroke-width: 1.0;" x1="44" x2="44" y1="835.2266" y2="932.625"/><line style="stroke: #383838; stroke-width: 1.0;" x1="127" x2="127" y1="86.2969" y2="475.1563"/><line style="stroke: #383838; stroke-width: 1.0; stroke-dasharray: 1.0,4.0;" x1="127" x2="127" y1="475.1563" y2="515.9609"/><line style="stroke: #383838; stroke-width: 1.0;" x1="127" x2="127" y1="515.9609" y2="794.4219"/><line style="stroke: #383838; stroke-width: 1.0; stroke-dasharray: 1.0,4.0;" x1="127" x2="127" y1="794.4219" y2="835.2266"/><line style="stroke: #383838; stroke-width: 1.0;" x1="127" x2="127" y1="835.2266" y2="932.625"/><line style="stroke: #383838; stroke-width: 1.0;" x1="295.5" x2="295.5" y1="86.2969" y2="475.1563"/><line style="stroke: #383838; stroke-width: 1.0; stroke-dasharray: 1.0,4.0;" x1="295.5" x2="295.5" y1="475.1563" y2="515.9609"/><line style="stroke: #383838; stroke-width: 1.0;" x1="295.5" x2="295.5" y1="515.9609" y2="794.4219"/><line style="stroke: #383838; stroke-width: 1.0; stroke-dasharray: 1.0,4.0;" x1="295.5" x2="295.5" y1="794.4219" y2="835.2266"/><line style="stroke: #383838; stroke-width: 1.0;" x1="295.5" x2="295.5" y1="835.2266" y2="932.625"/><line style="stroke: #383838; stroke-width: 1.0;" x1="503.5" x2="503.5" y1="86.2969" y2="475.1563"/><line style="stroke: #383838; stroke-width: 1.0; stroke-dasharray: 1.0,4.0;" x1="503.5" x2="503.5" y1="475.1563" y2="515.9609"/><line style="stroke: #383838; stroke-width: 1.0;" x1="503.5" x2="503.5" y1="515.9609" y2="794.4219"/><line style="stroke: #383838; stroke-width: 1.0; stroke-dasharray: 1.0,4.0;" x1="503.5" x2="503.5" y1="794.4219" y2="835.2266"/><line style="stroke: #383838; stroke-width: 1.0;" x1="503.5" x2="503.5" y1="835.2266" y2="932.625"/><line style="stroke: #383838; stroke-width: 1.0;" x1="799.5" x2="799.5" y1="86.2969" y2="475.1563"/><line style="stroke: #383838; stroke-width: 1.0; stroke-dasharray: 1.0,4.0;" x1="799.5" x2="799.5" y1="475.1563" y2="515.9609"/><line style="stroke: #383838; stroke-width: 1.0;" x1="799.5" x2="799.5" y1="515.9609" y2="794.4219"/><line style="stroke: #383838; stroke-width: 1.0; stroke-dasharray: 1.0,4.0;" x1="799.5" x2="799.5" y1="794.4219" y2="835.2266"/><line style="stroke: #383838; stroke-width: 1.0;" x1="799.5" x2="799.5" y1="835.2266" y2="932.625"/><text fill="#000000" font-family="sans-serif" font-size="14" lengthAdjust="spacingAndGlyphs" textLength="66" x="8" y="82.9951">Developer</text><ellipse cx="44" cy="13" fill="#F8F8F8" filter="url(#f1y0cvy759y8t4)" rx="8" ry="8" style="stroke: #383838; stroke-width: 2.0;"/><path d="M44,21 L44,48 M31,29 L57,29 M44,48 L31,63 M44,48 L57,63 " fill="none" filter="url(#f1y0cvy759y8t4)" style="stroke: #383838; stroke-width: 2.0;"/><text fill="#000000" font-family="sans-serif" font-size="14" lengthAdjust="spacingAndGlyphs" textLength="66" x="8" y="944.6201">Developer</text><ellipse cx="44" cy="957.9219" fill="#F8F8F8" filter="url(#f1y0cvy759y8t4)" rx="8" ry="8" style="stroke: #383838; stroke-width: 2.0;"/><path d="M44,965.9219 L44,992.9219 M31,973.9219 L57,973.9219 M44,992.9219 L31,1007.9219 M44,992.9219 L57,1007.9219 " fill="none" filter="url(#f1y0cvy759y8t4)" style="stroke: #383838; stroke-width: 2.0;"/><text fill="#000000" font-family="sans-serif" font-size="14" lengthAdjust="spacingAndGlyphs" textLength="68" x="90" y="82.9951">Maintainer</text><ellipse cx="127" cy="13" fill="#F8F8F8" filter="url(#f1y0cvy759y8t4)" rx="8" ry="8" style="stroke: #383838; stroke-width: 2.0;"/><path d="M127,21 L127,48 M114,29 L140,29 M127,48 L114,63 M127,48 L140,63 " fill="none" filter="url(#f1y0cvy759y8t4)" style="stroke: #383838; stroke-width: 2.0;"/><text fill="#000000" font-family="sans-serif" font-size="14" lengthAdjust="spacingAndGlyphs" textLength="68" x="90" y="944.6201">Maintainer</text><ellipse cx="127" cy="957.9219" fill="#F8F8F8" filter="url(#f1y0cvy759y8t4)" rx="8" ry="8" style="stroke: #383838; stroke-width: 2.0;"/><path d="M127,965.9219 L127,992.9219 M114,973.9219 L140,973.9219 M127,992.9219 L114,1007.9219 M127,992.9219 L140,1007.9219 " fill="none" filter="url(#f1y0cvy759y8t4)" style="stroke: #383838; stroke-width: 2.0;"/><rect fill="#F8F8F8" filter="url(#f1y0cvy759y8t4)" height="30.2969" style="stroke: #383838; stroke-width: 1.5;" width="59" x="264.5" y="51"/><text fill="#000000" font-family="sans-serif" font-size="14" lengthAdjust="spacingAndGlyphs" textLength="45" x="271.5" y="70.9951">GitHub</text><rect fill="#F8F8F8" filter="url(#f1y0cvy759y8t4)" height="30.2969" style="stroke: #383838; stroke-width: 1.5;" width="59" x="264.5" y="931.625"/><text fill="#000000" font-family="sans-serif" font-size="14" lengthAdjust="spacingAndGlyphs" textLength="45" x="271.5" y="951.6201">GitHub</text><rect fill="#F8F8F8" filter="url(#f1y0cvy759y8t4)" height="30.2969" style="stroke: #383838; stroke-width: 1.5;" width="101" x="451.5" y="51"/><text fill="#000000" font-family="sans-serif" font-size="14" lengthAdjust="spacingAndGlyphs" textLength="87" x="458.5" y="70.9951">Authenticator</text><rect fill="#F8F8F8" filter="url(#f1y0cvy759y8t4)" height="30.2969" style="stroke: #383838; stroke-width: 1.5;" width="101" x="451.5" y="931.625"/><text fill="#000000" font-family="sans-serif" font-size="14" lengthAdjust="spacingAndGlyphs" textLength="87" x="458.5" y="951.6201">Authenticator</text><rect fill="#F8F8F8" filter="url(#f1y0cvy759y8t4)" height="30.2969" style="stroke: #383838; stroke-width: 1.5;" width="87" x="754.5" y="51"/><text fill="#000000" font-family="sans-serif" font-size="14" lengthAdjust="spacingAndGlyphs" textLength="73" x="761.5" y="70.9951">Platform.sh</text><rect fill="#F8F8F8" filter="url(#f1y0cvy759y8t4)" height="30.2969" style="stroke: #383838; stroke-width: 1.5;" width="87" x="754.5" y="931.625"/><text fill="#000000" font-family="sans-serif" font-size="14" lengthAdjust="spacingAndGlyphs" textLength="73" x="761.5" y="951.6201">Platform.sh</text><rect fill="#FFFFFF" filter="url(#f1y0cvy759y8t4)" height="320.5938" style="stroke: #383838; stroke-width: 1.0;" width="10" x="499" y="146.5625"/><rect fill="#FFFFFF" filter="url(#f1y0cvy759y8t4)" height="29.1328" style="stroke: #383838; stroke-width: 1.0;" width="10" x="499" y="885.4922"/><rect fill="#FFFFFF" filter="url(#f1y0cvy759y8t4)" height="87.3984" style="stroke: #383838; stroke-width: 1.0;" width="10" x="795" y="320.3594"/><rect fill="#FFFFFF" filter="url(#f1y0cvy759y8t4)" height="87.3984" style="stroke: #383838; stroke-width: 1.0;" width="10" x="795" y="639.625"/><polygon fill="#383838" points="284,113.4297,294,117.4297,284,121.4297,288,117.4297" style="stroke: #383838; stroke-width: 1.0;"/><line style="stroke: #383838; stroke-width: 1.0;" x1="44" x2="290" y1="117.4297" y2="117.4297"/><text fill="#000000" font-family="sans-serif" font-size="13" lengthAdjust="spacingAndGlyphs" textLength="111" x="51" y="112.3638">Create pull request</text><polygon fill="#383838" points="487,142.5625,497,146.5625,487,150.5625,491,146.5625" style="stroke: #383838; stroke-width: 1.0;"/><line style="stroke: #383838; stroke-width: 1.0;" x1="296" x2="493" y1="146.5625" y2="146.5625"/><text fill="#000000" font-family="sans-serif" font-size="13" lengthAdjust="spacingAndGlyphs" textLength="178" x="303" y="141.4966">Webhook: Pull request created</text><polygon fill="#383838" points="307,171.6953,297,175.6953,307,179.6953,303,175.6953" style="stroke: #383838; stroke-width: 1.0;"/><line style="stroke: #383838; stroke-width: 1.0;" x1="301" x2="498" y1="175.6953" y2="175.6953"/><text fill="#000000" font-family="sans-serif" font-size="13" lengthAdjust="spacingAndGlyphs" textLength="110" x="313" y="170.6294">Get team members</text><polygon fill="#383838" points="487,200.8281,497,204.8281,487,208.8281,491,204.8281" style="stroke: #383838; stroke-width: 1.0;"/><line style="stroke: #383838; stroke-width: 1.0;" x1="296" x2="493" y1="204.8281" y2="204.8281"/><text fill="#000000" font-family="sans-serif" font-size="13" lengthAdjust="spacingAndGlyphs" textLength="90" x="303" y="199.7622">Team members</text><line style="stroke: #383838; stroke-width: 1.0;" x1="509" x2="551" y1="233.9609" y2="233.9609"/><line style="stroke: #383838; stroke-width: 1.0;" x1="551" x2="551" y1="233.9609" y2="246.9609"/><line style="stroke: #383838; stroke-width: 1.0;" x1="510" x2="551" y1="246.9609" y2="246.9609"/><polygon fill="#383838" points="520,242.9609,510,246.9609,520,250.9609,516,246.9609" style="stroke: #383838; stroke-width: 1.0;"/><text fill="#000000" font-family="sans-serif" font-size="13" lengthAdjust="spacingAndGlyphs" textLength="153" x="516" y="228.895">Is developer part of team?</text><polygon fill="#383838" points="307,287.2266,297,291.2266,307,295.2266,303,291.2266" style="stroke: #383838; stroke-width: 1.0;"/><line style="stroke: #383838; stroke-width: 1.0;" x1="301" x2="498" y1="291.2266" y2="291.2266"/><text fill="#000000" font-family="sans-serif" font-size="13" lengthAdjust="spacingAndGlyphs" textLength="152" x="313" y="271.0278">Create pull request status:</text><text fill="#000000" font-family="sans-serif" font-size="13" lengthAdjust="spacingAndGlyphs" textLength="115" x="313" y="286.1606">Deployment started</text><polygon fill="#383838" points="783,316.3594,793,320.3594,783,324.3594,787,320.3594" style="stroke: #383838; stroke-width: 1.0;"/><line style="stroke: #383838; stroke-width: 1.0;" x1="509" x2="789" y1="320.3594" y2="320.3594"/><text fill="#000000" font-family="sans-serif" font-size="13" lengthAdjust="spacingAndGlyphs" textLength="266" x="516" y="315.2935">Push pull request code to create environment</text><polygon fill="#383838" points="783,345.4922,793,349.4922,783,353.4922,787,349.4922" style="stroke: #383838; stroke-width: 1.0;"/><line style="stroke: #383838; stroke-width: 1.0;" x1="509" x2="789" y1="349.4922" y2="349.4922"/><text fill="#000000" font-family="sans-serif" font-size="13" lengthAdjust="spacingAndGlyphs" textLength="117" x="516" y="344.4263">Environment ready?</text><polygon fill="#383838" points="783,374.625,793,378.625,783,382.625,787,378.625" style="stroke: #383838; stroke-width: 1.0;"/><line style="stroke: #383838; stroke-width: 1.0;" x1="509" x2="789" y1="378.625" y2="378.625"/><text fill="#000000" font-family="sans-serif" font-size="13" lengthAdjust="spacingAndGlyphs" textLength="117" x="516" y="373.5591">Environment ready?</text><polygon fill="#383838" points="520,403.7578,510,407.7578,520,411.7578,516,407.7578" style="stroke: #383838; stroke-width: 1.0;"/><line style="stroke: #383838; stroke-width: 1.0;" x1="514" x2="799" y1="407.7578" y2="407.7578"/><text fill="#000000" font-family="sans-serif" font-size="13" lengthAdjust="spacingAndGlyphs" textLength="111" x="526" y="402.6919">Environment ready</text><polygon fill="#383838" points="307,463.1563,297,467.1563,307,471.1563,303,467.1563" style="stroke: #383838; stroke-width: 1.0;"/><line style="stroke: #383838; stroke-width: 1.0;" x1="301" x2="503" y1="467.1563" y2="467.1563"/><text fill="#000000" font-family="sans-serif" font-size="13" lengthAdjust="spacingAndGlyphs" textLength="157" x="313" y="431.8247">Update pull request status:</text><text fill="#000000" font-family="sans-serif" font-size="13" lengthAdjust="spacingAndGlyphs" textLength="136" x="313" y="446.9575">Deployment completed</text><text fill="#000000" font-family="sans-serif" font-size="13" lengthAdjust="spacingAndGlyphs" textLength="141" x="313" y="462.0903">with link to environment</text><text fill="#000000" font-family="sans-serif" font-size="11" lengthAdjust="spacingAndGlyphs" textLength="59" x="392.5" y="499.3667">Time passes</text><polygon fill="#383838" points="284,533.0938,294,537.0938,284,541.0938,288,537.0938" style="stroke: #383838; stroke-width: 1.0;"/><line style="stroke: #383838; stroke-width: 1.0;" x1="44" x2="290" y1="537.0938" y2="537.0938"/><text fill="#000000" font-family="sans-serif" font-size="13" lengthAdjust="spacingAndGlyphs" textLength="194" x="51" y="532.0278">Push code to pull request branch</text><polygon fill="#383838" points="492,562.2266,502,566.2266,492,570.2266,496,566.2266" style="stroke: #383838; stroke-width: 1.0;"/><line style="stroke: #383838; stroke-width: 1.0;" x1="296" x2="498" y1="566.2266" y2="566.2266"/><text fill="#000000" font-family="sans-serif" font-size="13" lengthAdjust="spacingAndGlyphs" textLength="184" x="303" y="561.1606">Webhook: Pull request updated</text><polygon fill="#383838" points="307,606.4922,297,610.4922,307,614.4922,303,610.4922" style="stroke: #383838; stroke-width: 1.0;"/><line style="stroke: #383838; stroke-width: 1.0;" x1="301" x2="503" y1="610.4922" y2="610.4922"/><text fill="#000000" font-family="sans-serif" font-size="13" lengthAdjust="spacingAndGlyphs" textLength="152" x="313" y="590.2935">Create pull request status:</text><text fill="#000000" font-family="sans-serif" font-size="13" lengthAdjust="spacingAndGlyphs" textLength="115" x="313" y="605.4263">Deployment started</text><polygon fill="#383838" points="783,635.625,793,639.625,783,643.625,787,639.625" style="stroke: #383838; stroke-width: 1.0;"/><line style="stroke: #383838; stroke-width: 1.0;" x1="504" x2="789" y1="639.625" y2="639.625"/><text fill="#000000" font-family="sans-serif" font-size="13" lengthAdjust="spacingAndGlyphs" textLength="272" x="511" y="634.5591">Push pull request code to update environment</text><polygon fill="#383838" points="783,664.7578,793,668.7578,783,672.7578,787,668.7578" style="stroke: #383838; stroke-width: 1.0;"/><line style="stroke: #383838; stroke-width: 1.0;" x1="504" x2="789" y1="668.7578" y2="668.7578"/><text fill="#000000" font-family="sans-serif" font-size="13" lengthAdjust="spacingAndGlyphs" textLength="117" x="511" y="663.6919">Environment ready?</text><polygon fill="#383838" points="783,693.8906,793,697.8906,783,701.8906,787,697.8906" style="stroke: #383838; stroke-width: 1.0;"/><line style="stroke: #383838; stroke-width: 1.0;" x1="504" x2="789" y1="697.8906" y2="697.8906"/><text fill="#000000" font-family="sans-serif" font-size="13" lengthAdjust="spacingAndGlyphs" textLength="117" x="511" y="692.8247">Environment ready?</text><polygon fill="#383838" points="515,723.0234,505,727.0234,515,731.0234,511,727.0234" style="stroke: #383838; stroke-width: 1.0;"/><line style="stroke: #383838; stroke-width: 1.0;" x1="509" x2="799" y1="727.0234" y2="727.0234"/><text fill="#000000" font-family="sans-serif" font-size="13" lengthAdjust="spacingAndGlyphs" textLength="111" x="521" y="721.9575">Environment ready</text><polygon fill="#383838" points="307,782.4219,297,786.4219,307,790.4219,303,786.4219" style="stroke: #383838; stroke-width: 1.0;"/><line style="stroke: #383838; stroke-width: 1.0;" x1="301" x2="503" y1="786.4219" y2="786.4219"/><text fill="#000000" font-family="sans-serif" font-size="13" lengthAdjust="spacingAndGlyphs" textLength="157" x="313" y="751.0903">Update pull request status:</text><text fill="#000000" font-family="sans-serif" font-size="13" lengthAdjust="spacingAndGlyphs" textLength="136" x="313" y="766.2231">Deployment completed</text><text fill="#000000" font-family="sans-serif" font-size="13" lengthAdjust="spacingAndGlyphs" textLength="141" x="313" y="781.356">with link to environment</text><text fill="#000000" font-family="sans-serif" font-size="11" lengthAdjust="spacingAndGlyphs" textLength="59" x="392.5" y="818.6323">Time passes</text><polygon fill="#383838" points="284,852.3594,294,856.3594,284,860.3594,288,856.3594" style="stroke: #383838; stroke-width: 1.0;"/><line style="stroke: #383838; stroke-width: 1.0;" x1="127" x2="290" y1="856.3594" y2="856.3594"/><text fill="#000000" font-family="sans-serif" font-size="13" lengthAdjust="spacingAndGlyphs" textLength="145" x="134" y="851.2935">Merge/close pull request</text><polygon fill="#383838" points="487,881.4922,497,885.4922,487,889.4922,491,885.4922" style="stroke: #383838; stroke-width: 1.0;"/><line style="stroke: #383838; stroke-width: 1.0;" x1="296" x2="493" y1="885.4922" y2="885.4922"/><text fill="#000000" font-family="sans-serif" font-size="13" lengthAdjust="spacingAndGlyphs" textLength="160" x="303" y="880.4263">Pull request merged/closed</text><polygon fill="#383838" points="788,910.625,798,914.625,788,918.625,792,914.625" style="stroke: #383838; stroke-width: 1.0;"/><line style="stroke: #383838; stroke-width: 1.0;" x1="504" x2="794" y1="914.625" y2="914.625"/><text fill="#000000" font-family="sans-serif" font-size="13" lengthAdjust="spacingAndGlyphs" textLength="115" x="511" y="909.5591">Delete environment</text><!--
@startuml
skinparam monochrome true

Actor Developer
Actor Maintainer

Developer -> GitHub : Create pull request
GitHub -> Authenticator: Webhook: Pull request created
activate Authenticator
Authenticator -> GitHub: Get team members
GitHub -> Authenticator: Team members
Authenticator -> Authenticator: Is developer part of team?
Authenticator->GitHub: Create pull request status:\nDeployment started
Authenticator -> Platform.sh: Push pull request code to create environment
activate Platform.sh
Authenticator -> Platform.sh: Environment ready?
Authenticator -> Platform.sh: Environment ready?
Platform.sh -> Authenticator: Environment ready
deactivate Platform.sh
Authenticator -> GitHub: Update pull request status:\nDeployment completed\nwith link to environment
deactivate Authenticator
... Time passes ...
Developer -> GitHub: Push code to pull request branch
GitHub -> Authenticator: Webhook: Pull request updated
Authenticator->GitHub: Create pull request status:\nDeployment started
Authenticator -> Platform.sh: Push pull request code to update environment
activate Platform.sh
Authenticator -> Platform.sh: Environment ready?
Authenticator -> Platform.sh: Environment ready?
Platform.sh -> Authenticator: Environment ready
deactivate Platform.sh
Authenticator -> GitHub: Update pull request status:\nDeployment completed\nwith link to environment
deactivate Authenticator
... Time passes ...
Maintainer -> GitHub: Merge/close pull request
GitHub -> Authenticator: Pull request merged/closed
activate Authenticator
Authenticator -> Platform.sh: Delete environment
deactivate Authenticator
@enduml

PlantUML version 1.2018.14(Fri Dec 21 16:33:16 GMT 2018)
(GPL source distribution)
Java Runtime: Java(TM) SE Runtime Environment
JVM: Java HotSpot(TM) 64-Bit Server VM
Java Version: 1.8.0_192-b12
Operating System: Linux
OS Version: 5.0.0-1020-azure
Default Encoding: ANSI_X3.4-1968
Language: en
Country: US
--></g></svg>